<svg width="100" height="100" viewBox="0 0 100 100" xmlns="http://www.w3.org/2000/svg">
  <defs>
    <linearGradient id="lionGradient" x1="0%" y1="0%" x2="100%" y2="100%">
      <stop offset="0%" style="stop-color:#FFD700;stop-opacity:1" />
      <stop offset="100%" style="stop-color:#C41E3A;stop-opacity:1" />
    </linearGradient>
  </defs>

  <!-- Lion mane -->
  <path d="M50 20 L35 35 L30 25 L25 35 L20 30 L25 45 L20 50 L30 55 L25 65 L35 60 L40 70 L45 60 L50 65 L55 60 L60 70 L65 60 L70 65 L75 55 L80 50 L75 45 L80 30 L75 35 L70 25 L65 35 L50 20 Z"
        fill="url(#lionGradient)"/>

  <!-- Lion face -->
  <circle cx="50" cy="50" r="18" fill="#0D0D0D"/>

  <!-- Eyes -->
  <circle cx="43" cy="47" r="2" fill="#FFD700"/>
  <circle cx="57" cy="47" r="2" fill="#FFD700"/>

  <!-- Nose -->
  <path d="M50 52 L47 56 L50 54 L53 56 Z" fill="#FFD700"/>
</svg>
